<svg xmlns="http://www.w3.org/2000/svg" xmlns:xlink="http://www.w3.org/1999/xlink" id="Layer_1" x="0px" y="0px" viewBox="0 0 241 241" style="enable-background:new 0 0 241 241;" xml:space="preserve">
<style type="text/css">
	.st0{fill:#FEFEFE;}
	.st1{fill:#DCDDAF;}
	.st2{fill:#CFD69B;}
	.st3{fill:#E4E8C9;}
	.st4{fill:#A8B337;}
	.st5{fill:#A8B338;}
</style>
<g>
	<path class="st0" d="M113.02,240.92c-36.43,0-72.86-0.03-109.3,0.05c-2.64,0.01-3.73-0.1-3.72-3.43C0.14,159.52,0.14,81.49,0,3.46   c-0.01-3.32,1.07-3.43,3.72-3.43c35.77,0.08,71.53,0.05,107.3,0.05c0.34,0.5,0.28,0.96-0.16,1.38c-3.26,1.4-6.8,1.43-10.23,1.98   C49.99,11.67,9.74,53.51,3.3,104.41c-3.46,27.4,1.21,53.35,15.6,76.76c19.41,31.57,47.64,50.9,84.73,56.44   c3.11,0.46,6.3,0.57,9.23,1.92C113.3,239.95,113.36,240.41,113.02,240.92z"></path>
	<path class="st0" d="M240.92,129.99c0,35.81-0.05,71.62,0.08,107.42c0.01,2.98-0.6,3.59-3.58,3.58   c-36.47-0.13-72.94-0.08-109.41-0.08c-0.34-0.49-0.29-0.95,0.13-1.36c4.96-1.33,10.08-1.87,15.11-2.82   c22.33-4.18,41.66-14.23,58.22-29.67c18.55-17.31,30.17-38.57,35.59-63.28c0.99-4.52,0.57-9.3,2.49-13.65   C239.96,129.7,240.42,129.65,240.92,129.99z"></path>
	<path class="st0" d="M131,0.08c35.47,0,70.94,0.05,106.42-0.08c2.98-0.01,3.59,0.6,3.58,3.58c-0.13,36.14-0.08,72.28-0.08,108.42   c-0.49,0.34-0.95,0.3-1.36-0.13c-1.42-3.44-1.27-7.16-1.89-10.75c-3.83-22.37-13-42.1-28.08-59.19   c-19.95-22.61-44.97-35.38-74.63-39.5c-1.31-0.18-2.67-0.17-3.82-0.98C130.71,1.03,130.66,0.58,131,0.08z"></path>
	<path class="st1" d="M131,0.08c0.02,0.28,0.05,0.56,0.09,0.84c-6.72,2.82-13.44,2.82-20.16,0c0.04-0.28,0.07-0.56,0.09-0.84   C117.68,0.08,124.34,0.08,131,0.08z"></path>
	<path class="st2" d="M240.11,111.87c0.29-0.11,0.56-0.06,0.8,0.14c0,6,0,11.99,0,17.99c-0.29,0.07-0.58,0.11-0.87,0.1   C237.34,124.01,237.25,117.93,240.11,111.87z"></path>
	<path class="st3" d="M128.06,240.08c-0.03,0.28-0.04,0.56-0.06,0.83c-5,0-9.99,0-14.99,0c0-0.28-0.02-0.57-0.05-0.85   C118,237.4,123.03,237.37,128.06,240.08z"></path>
	<path class="st4" d="M128.06,240.08c-5.03-0.01-10.07-0.01-15.1-0.02C58.91,237.03,12.2,195.54,3,142.39   C-8.44,76.27,32.28,16.08,97.6,2.59c4.39-0.91,8.81-1.73,13.33-1.67c6.72,0,13.44,0,20.16,0c36.8,3.44,65.96,20.42,87.48,50.24   c13.01,18.03,20.25,38.38,21.54,60.7c-0.02,6.08-0.04,12.15-0.07,18.23c-4.25,42.83-25.38,74.7-62.66,95.85   C162.16,234.59,145.52,238.92,128.06,240.08z"></path>
	<path class="st0" d="M10.41,119.66C11.96,55.91,61.6,8.14,125.69,10.27c59.06,1.96,106.85,51.82,105.13,113.87   c-1.64,59.32-52.53,107.86-111.84,106.5C57.53,229.23,10.51,179.72,10.41,119.66z"></path>
	<path class="st5" d="M117.78,67.76c20.8,0,41.59-0.01,62.39,0.01c6.24,0,6.96,0.69,6.96,6.81c0.02,30.28,0.02,60.57,0,90.85   c0,6.18-0.61,6.76-6.98,6.76c-41.76,0.01-83.52,0-125.28-0.01c-6.38,0-6.94-0.51-6.95-6.78c-0.03-30.28-0.03-60.57,0-90.85   c0.01-6.17,0.7-6.79,6.96-6.79C75.85,67.75,96.82,67.75,117.78,67.76z"></path>
	<path class="st0" d="M118.52,74.17c19.14,0.01,38.27-0.02,57.41,0.05c1.68,0.01,3.99-0.85,4.79,1.48c0.67,1.94-1.28,2.89-2.38,4.03   c-12.67,12.97-25.34,25.96-38.09,38.85c-13.71,13.86-31.79,13.57-45.26-0.41C82.64,105.36,70.11,92.73,57.7,79.99   c-1.22-1.25-3.36-2.36-2.49-4.47c0.88-2.14,3.19-1.32,4.91-1.32C79.58,74.15,99.05,74.17,118.52,74.17z"></path>
	<path class="st0" d="M117.78,166.14c-19.31,0-38.62,0.01-57.93-0.04c-1.55,0-3.61,0.81-4.53-1.06c-1.1-2.25,1.2-3.2,2.37-4.41   c10.4-10.78,20.89-21.47,31.29-32.24c2.55-2.64,4.7-3.36,8.11-0.84c12.15,9,28.4,9.16,41.03,0.35c3.64-2.54,5.84-2.41,8.87,0.77   c10.32,10.85,20.92,21.44,31.36,32.18c1.09,1.12,3.06,2.12,2.29,4.06c-0.8,2.01-2.89,1.2-4.44,1.21   C156.73,166.16,137.26,166.14,117.78,166.14z"></path>
	<path class="st0" d="M180.96,120.37c0,9.3,0.02,18.6-0.03,27.91c-0.01,1.24,0.51,2.83-1.15,3.47c-1.64,0.64-2.8-0.32-3.9-1.46   c-8.55-8.82-17.14-17.62-25.7-26.43c-2.42-2.49-2.27-4.94,0.15-7.4c8.49-8.66,16.93-17.36,25.43-25.99c1-1.02,2.11-2.55,3.76-1.89   c1.96,0.78,1.41,2.79,1.42,4.39C180.98,102.09,180.96,111.23,180.96,120.37z"></path>
	<path class="st0" d="M54.79,120.09c0-9.15-0.01-18.3,0.01-27.46c0-1.48-0.23-3.22,1.37-4c1.75-0.86,2.72,0.77,3.71,1.77   c8.51,8.66,16.97,17.38,25.48,26.05c2.66,2.71,2.37,5.25-0.14,7.81c-8.49,8.68-16.99,17.36-25.46,26.06   c-0.96,0.99-1.96,1.97-3.44,1.52c-1.97-0.6-1.47-2.4-1.48-3.79c-0.05-9.32-0.03-18.64-0.03-27.96   C54.8,120.09,54.79,120.09,54.79,120.09z"></path>
</g>
</svg>