<svg xmlns="http://www.w3.org/2000/svg" xmlns:xlink="http://www.w3.org/1999/xlink" id="Layer_1" x="0px" y="0px" viewBox="0 0 241 241" style="enable-background:new 0 0 241 241;" xml:space="preserve">
<style type="text/css">
	.st0{fill:#A3AC1F;}
</style>
<g>
	<path class="st0" d="M218.57,51.18C197.06,21.35,167.9,4.36,131.09,0.92h-20.16c-4.52-0.06-8.94,0.76-13.33,1.67   C32.28,16.09-8.44,76.3,3,142.44c9.2,53.17,55.91,94.67,109.96,97.7c5.04,0.01,10.07,0.02,15.1,0.02   c17.46-1.16,34.1-5.49,49.33-14.14c37.27-21.16,58.4-53.04,62.65-95.88c0.03-6.07,0.05-12.15,0.07-18.23   C238.82,89.57,231.59,69.21,218.57,51.18z M230.82,124.17c-1.64,59.35-52.53,107.9-111.85,106.54   c-61.44-1.4-108.46-50.93-108.56-111.01C11.96,55.93,61.6,8.14,125.69,10.27C184.75,12.23,232.53,62.11,230.82,124.17z"></path>
	<path class="st0" d="M180.17,67.79c-20.8-0.02-41.59-0.01-62.39-0.01c-20.96-0.01-41.93-0.01-62.89,0c-6.27,0-6.96,0.62-6.97,6.79   c-0.03,30.29-0.03,60.59,0,90.88c0.01,6.27,0.57,6.78,6.95,6.78c41.76,0.01,83.52,0.02,125.28,0.01c6.37,0,6.98-0.58,6.98-6.76   c0.02-30.29,0.02-60.58,0-90.88C187.13,68.48,186.41,67.79,180.17,67.79z M55.21,75.55c0.87-2.14,3.18-1.32,4.91-1.32   c19.46-0.05,38.93-0.03,58.4-0.03c19.14,0.01,38.27-0.02,57.41,0.05c1.67,0,3.98-0.85,4.79,1.48c0.67,1.94-1.28,2.89-2.39,4.02   c-12.67,12.98-25.33,25.98-38.09,38.87c-13.7,13.86-31.79,13.57-45.26-0.41C82.64,105.4,70.11,92.76,57.7,80.02   C56.48,78.77,54.34,77.65,55.21,75.55z M54.84,148.09c-0.06-9.31-0.03-18.64-0.03-27.96c-0.01,0-0.02,0-0.02,0   c0-9.15-0.01-18.32,0-27.47c0.01-1.48-0.22-3.22,1.38-4c1.75-0.86,2.72,0.76,3.71,1.77c8.51,8.66,16.97,17.39,25.48,26.06   c2.66,2.71,2.36,5.24-0.14,7.8c-8.5,8.69-16.99,17.38-25.47,26.08c-0.96,0.98-1.95,1.96-3.43,1.51   C54.34,151.29,54.85,149.48,54.84,148.09z M180.64,164.96c-0.79,2.01-2.89,1.2-4.43,1.21c-19.48,0.05-38.95,0.03-58.43,0.03   c-19.31,0-38.62,0.01-57.92-0.04c-1.56,0-3.62,0.81-4.53-1.06c-1.11-2.25,1.2-3.2,2.36-4.41c10.4-10.78,20.89-21.48,31.3-32.26   c2.55-2.63,4.7-3.36,8.11-0.83c12.15,9,28.39,9.16,41.03,0.34c3.64-2.54,5.84-2.41,8.87,0.77c10.33,10.85,20.92,21.45,31.36,32.19   C179.44,162.02,181.41,163.02,180.64,164.96z M180.96,120.41c0,9.3,0.02,18.61-0.03,27.91c0,1.24,0.52,2.83-1.14,3.48   c-1.65,0.63-2.8-0.32-3.9-1.46c-8.56-8.83-17.14-17.63-25.7-26.45c-2.42-2.49-2.27-4.94,0.14-7.4c8.49-8.65,16.93-17.37,25.44-26   c1-1.02,2.11-2.55,3.76-1.89c1.96,0.78,1.41,2.79,1.42,4.39C180.98,102.13,180.96,111.27,180.96,120.41z"></path>
</g>
</svg>