<svg xmlns="http://www.w3.org/2000/svg" xmlns:xlink="http://www.w3.org/1999/xlink" id="Layer_1" x="0px" y="0px" viewBox="0 0 241 241" style="enable-background:new 0 0 241 241;" xml:space="preserve">
<style type="text/css">
	.st0{fill:#A8B237;}
	.st1{fill:#D4D9A4;}
	.st2{fill:#A9B239;}
</style>
<g>
	<g>
		<path class="st0" d="M240.07,111.9c-0.15-2.16-0.15-4.34-0.47-6.47c-4.53-29.85-17.78-54.88-40.49-75.07    C163.96-0.9,109.01-8.08,67.19,13.63C19.93,38.16-4.99,86.18,2.11,139.02c6.02,44.85,41.18,85.03,84.69,97.16    c7.01,1.96,14.24,2.72,21.21,4.74h24.98c5.48-1.19,11.17-0.59,16.65-2.03c25.29-6.69,46.74-19.41,63.51-39.74    c16.87-20.47,27.44-43.34,27.24-70.4C240.19,123.14,240.79,117.5,240.07,111.9z M120.52,231.19    C59.93,231.04,10.53,182.07,10.4,122.02C10.27,59.88,59.74,10.65,122.02,10.94c60.18,0.28,109,50.01,108.87,110.89    C230.75,182.14,181.1,231.34,120.52,231.19z"></path>
		<path class="st1" d="M240.9,130l-0.39,0.14c0,0-0.42-0.01-0.42-0.01c-0.01-6.08-0.02-12.16-0.02-18.23    c0.29-0.03,0.57,0.01,0.83,0.12C240.9,118.01,240.9,124,240.9,130z"></path>
		<path class="st2" d="M199.88,111.83c-8.21-14.19-18.17-19.89-36.05-19.89l-11.04,0.24c0-2.5,0.08-7.69-0.15-10.35    c-0.85-9.56-3.06-11.77-12.7-11.78c-13.31-0.01-26.63,0-39.94,0s-26.62-0.01-39.93,0c-10.11,0.01-12.75,2.6-12.77,12.7    c-0.03,21.64-0.02,43.27,0,64.9c0.01,8.73,2.69,11.51,11.47,12.06c1.33,0.08,2.68,0.18,3.99,0.02c3.33-0.38,5.23,0.59,6.71,4.04    c2.66,6.23,8.04,9.13,14.82,8.98c6.52-0.14,11.75-2.94,14.24-9.06c1.42-3.5,3.41-4.15,6.74-4.12c16.8,0.13,33.6,0.11,50.4-0.01    c2.74-0.02,3.85,0.84,4.88,3.47c2.59,6.58,8.08,9.65,14.93,9.68c6.83,0.02,12.4-2.91,14.92-9.58c1.09-2.89,2.48-3.59,5.36-3.72    c6.98-0.33,9.39-3.06,9.49-10.09c0.08-5.99-0.32-12.01,0.1-17.97C205.86,124.07,203.54,118.15,199.88,111.83z M83.75,165.88    c-5.4-0.14-9.58-4.63-9.41-10.11c0.17-5.21,4.41-9.41,9.57-9.48c5.45-0.07,9.5,4.18,9.42,9.88    C93.26,162.03,89.32,166.02,83.75,165.88z M145.33,148.74c-0.01,3-0.91,4.1-3.98,4.07c-12.65-0.13-25.3-0.11-37.95-0.01    c-2.41,0.02-3.51-0.91-4.31-3.12c-2.44-6.71-7.47-9.86-14.52-10.03c-7.42-0.19-12.83,2.83-15.73,9.85    c-2.52,6.12-7.77,2.7-11.73,3.05c-3.8,0.35-2.87-3.29-2.88-5.59c-0.06-21.3,0.09-42.61-0.16-63.91c-0.06-4.99,1.7-6.2,6.38-6.1    c13.31,0.27,26.62,0.09,39.94,0.09c13.48,0,26.96,0.1,40.44-0.06c3.68-0.05,5.01,1.16,4.97,4.87    C145.53,104.14,145.38,126.44,145.33,148.74z M175.54,165.97c-5.52-0.05-9.58-4.29-9.56-9.99c0.01-5.43,3.99-9.61,9.26-9.73    c5.5-0.13,9.69,4.05,9.71,9.7C184.98,161.71,180.93,166.02,175.54,165.97z M198.63,148.34c0.01,2.09,0.06,4.12-2.78,4.35    c-2.24,0.18-4.07,0.2-5.03-2.67c-2.4-7.21-7.93-10.51-15.27-10.51c-7.36,0.01-12.89,3.54-15.32,10.56    c-1.07,3.08-2.94,2.56-4.99,2.62c-3.01,0.09-2.35-2.18-2.36-3.88c-0.04-7.82-0.01-15.64-0.01-23.46c-0.01,0-0.02,0-0.02,0    c0-7.65,0.1-15.3-0.06-22.95c-0.05-2.63,0.8-3.48,3.4-3.42c6.15,0.15,12.31-0.04,18.46,0.09c4.15,0.08,7.8,1.61,10.62,4.75    c1.23,1.35,3.11,2.75,4.02,4.31c1.94,3.35,7.13,8.7,4.73,9.62c-3.77,1.45-8.41,0.74-12.84,0.92c-2.67,0.11-2.15-1.93-2.21-3.51    c-0.11-2.66,0.23-5.67-3.66-5.73c-3.76-0.05-3.32,3.53-3.36,6.24c-0.12,9.68-0.13,9.67,9.27,9.68c4.49,0,8.99,0.17,13.47-0.03    c3.12-0.15,4.07,1.07,3.99,4.06C198.52,135.69,198.61,142.02,198.63,148.34z"></path>
	</g>
	<g>
		<g id="lock">
			<path class="st2" d="M107.51,102.84h-1.82v-3.63c0-5.09-4-9.08-9.08-9.08c-5.09,0-9.08,4-9.08,9.08v3.63h-1.82     c-2,0-3.63,1.63-3.63,3.63v18.16c0,2,1.63,3.63,3.63,3.63h21.79c2,0,3.63-1.63,3.63-3.63v-18.16     C111.14,104.48,109.51,102.84,107.51,102.84z M102.24,102.84H90.98v-3.63c0-3.09,2.54-5.63,5.63-5.63s5.63,2.54,5.63,5.63V102.84     z"></path>
		</g>
	</g>
</g>
</svg>