<svg xmlns="http://www.w3.org/2000/svg" xmlns:xlink="http://www.w3.org/1999/xlink" id="Layer_1" x="0px" y="0px" viewBox="0 0 241 241" style="enable-background:new 0 0 241 241;" xml:space="preserve">
<style type="text/css">
	.st0{fill:#D0D59B;}
	.st1{fill:#D1D69D;}
	.st2{fill:#DCDEB0;}
	.st3{fill:#A8B237;}
	.st4{fill:#AAB43B;}
	.st5{fill:#ABB43D;}
	.st6{fill:#A9B33B;}
	.st7{fill:#A9B33A;}
	.st8{fill:#A9B337;}
</style>
<g>
	<path class="st0" d="M240.92,129.99c-0.28,0.08-0.57,0.11-0.87,0.1c-2.71-6.08-2.79-12.16,0.06-18.23c0.29-0.1,0.56-0.05,0.81,0.14   C240.92,118,240.92,124,240.92,129.99z"></path>
	<path class="st1" d="M130.11,240.06c-0.07,0.28-0.1,0.57-0.1,0.86c-6,0-11.99,0-17.99,0c-0.04-0.27-0.08-0.55-0.12-0.82   C117.96,237.28,124.03,237.32,130.11,240.06z"></path>
	<path class="st2" d="M129,0.08c0.02,0.28,0.05,0.56,0.09,0.83c-5.72,2.77-11.45,2.77-17.17,0c0.03-0.28,0.06-0.55,0.09-0.83   C117.68,0.08,123.34,0.08,129,0.08z"></path>
	<path class="st3" d="M129.09,0.92c-5.72-0.01-11.44-0.01-17.16-0.01C87.9,2.68,66.14,10.73,47.32,25.7   C2.4,61.42-12.11,119.11,12.35,171.33c19.5,41.62,53.55,64.38,99.54,68.76c6.08-0.01,12.15-0.02,18.22-0.03   c16.14-1.06,31.47-5.26,45.62-13.01c38.37-21,60.04-53.25,64.32-96.95c0.02-6.08,0.04-12.15,0.06-18.23   C237.2,53.8,187.23,3.85,129.09,0.92z M119.33,230.84C59.43,230.42,10,180.23,10.42,120.28C10.85,59.15,60.56,9.82,121.32,10.2   c60.86,0.39,110.01,50.38,109.53,111.4C230.38,182.45,180.53,231.27,119.33,230.84z"></path>
	<path class="st3" d="M96.96,104c13.22,2.41,26.45,4.8,39.67,7.22c10.62,1.94,21.23,3.94,31.85,5.87c5.61,1.02,6.15,2.2,3.04,7.17   c-1.94,3.1-3.7,6.35-5.94,9.22c-2.71,3.46-2.26,5.59,1.55,7.85c6.42,3.81,12.53,8.16,18.87,12.1c3.1,1.93,4.3,3.71,1.71,7.12   c-2.7,3.56-4.98,7.47-7.19,11.37c-1.82,3.2-3.79,3.01-6.49,1.16c-6.31-4.32-12.78-8.4-19.09-12.71c-3.29-2.25-5.61-2.07-7.64,1.68   c-1.89,3.5-4.21,6.77-6.44,10.07c-2.74,4.05-4.23,4.14-6.92,0.22c-13.81-20.14-27.55-40.34-41.33-60.5   c-1.34-1.96-1.74-3.97-0.49-6.05C93.2,103.99,95.04,103.81,96.96,104z"></path>
	<path class="st4" d="M63.44,76.42c0.56,0.33,1.7,0.73,2.49,1.48c3.35,3.19,6.6,6.48,9.87,9.75c1.75,1.76,2.3,3.86,0.33,5.63   c-1.76,1.59-3.64,0.84-5.22-0.78c-3.23-3.31-6.53-6.55-9.79-9.83c-1.29-1.3-1.67-2.86-0.94-4.54   C60.68,77.02,61.57,76.3,63.44,76.42z"></path>
	<path class="st5" d="M87.98,75.67c0-2.33,0.02-4.66-0.01-6.99c-0.03-2.11,0.75-3.69,3.02-3.77c2.1-0.07,3.61,1.16,3.67,3.29   c0.14,5.16,0.15,10.32,0,15.48c-0.06,2.06-1.44,3.38-3.64,3.27c-2.33-0.11-3.02-1.72-3.02-3.78   C87.98,80.67,87.98,78.17,87.98,75.67z"></path>
	<path class="st5" d="M88.01,139.65c0-2.5-0.06-5,0.02-7.49c0.07-1.94,1.13-3.09,3.15-3.11c1.96-0.02,3.36,1.1,3.42,2.93   c0.18,5.32,0.18,10.65,0.01,15.97c-0.07,2.12-1.68,3.28-3.78,3.13c-1.96-0.14-2.85-1.5-2.85-3.43c0-2.66,0-5.33,0-7.99   C87.99,139.65,88,139.65,88.01,139.65z"></path>
	<path class="st6" d="M119.32,76.37c2.67,0.77,4.77,2.59,2.81,4.97c-3.66,4.44-7.95,8.36-12.19,12.28c-1.08,1-2.83,0.67-4.03-0.61   c-1.06-1.12-1.28-2.61-0.45-3.65c3.71-4.65,8.03-8.73,12.51-12.62C118.29,76.46,118.89,76.48,119.32,76.37z"></path>
	<path class="st7" d="M77.26,125.38c-0.08,0.33-0.02,1.19-0.41,1.58c-4.1,4.11-8.22,8.21-12.48,12.14   c-1.05,0.97-2.61,0.58-3.62-0.51c-1.32-1.42-1.35-3.24-0.14-4.55c3.62-3.9,7.29-7.78,11.25-11.31   C74.14,120.71,77.1,122.19,77.26,125.38z"></path>
	<path class="st8" d="M59.23,104.78c2.49,0,4.98-0.05,7.46,0.01c2.11,0.05,3.51,1,3.47,3.31c-0.04,2.02-1.28,3.05-3.17,3.08   c-5.14,0.08-10.28,0.1-15.42,0.03c-2.06-0.03-3.51-0.96-3.46-3.32c0.05-2.41,1.67-3.07,3.66-3.14c2.48-0.08,4.97-0.02,7.46-0.02   C59.23,104.76,59.23,104.77,59.23,104.78z"></path>
</g>
</svg>