<svg xmlns="http://www.w3.org/2000/svg" xmlns:xlink="http://www.w3.org/1999/xlink" id="Layer_1" x="0px" y="0px" viewBox="0 0 241 241" style="enable-background:new 0 0 241 241;" xml:space="preserve">
<style type="text/css">
	.st0{fill:#A8B237;}
	.st1{fill:#D0D59C;}
	.st2{fill:#D7DAA8;}
	.st3{fill:#DCDFB3;}
	.st4{fill:#A8B337;}
	.st5{fill:#A9B338;}
	.st6{fill:#A8B238;}
	.st7{fill:#A9B238;}
	.st8{fill:#A8B338;}
</style>
<g>
	<path class="st0" d="M240.07,111.88c-0.4-3.63-0.65-7.28-1.23-10.88c-8.5-52.74-52.3-94.78-105.51-99.45   C85.44-2.66,47.02,15.5,20.21,55.62C-7.7,97.38-5.62,152.63,24.97,192.98c20.77,27.4,48.62,43.15,82.96,47.06   c2.26,1.04,4.84-0.42,7.07,0.88h11.99c1.93-1.09,4.03-0.26,6.03-0.52c5.49,0.06,10.93-0.49,16.28-1.78   c26.1-6.27,47.83-19.82,64.64-40.59c16.26-20.09,26.9-42.66,26.45-69.28C240.2,123.13,240.78,117.49,240.07,111.88z M125.44,230.96   c-61.72,2.55-113.83-45.9-115.02-108.79C9.27,61.25,58.47,11.41,120.62,10.43c59.7,0.36,108.44,47.19,110.14,107.23   C232.51,179.79,183.6,228.55,125.44,230.96z"></path>
	<path class="st1" d="M240.9,130c-0.28,0.09-0.56,0.13-0.85,0.12c0.01-6.08,0.01-12.16,0.02-18.24c0.29-0.04,0.57,0,0.83,0.14   C240.9,118.01,240.9,124,240.9,130z"></path>
	<path class="st2" d="M107.93,240.04c2.4-0.02,4.88-0.76,7.07,0.88c-2.33,0-4.66,0-6.99,0C108.03,240.62,108,240.33,107.93,240.04z"></path>
	<path class="st3" d="M133.09,240.11c-0.03,0.27-0.06,0.54-0.1,0.81c-2,0-4,0-6,0C128.86,239.39,131,239.99,133.09,240.11z"></path>
	<path class="st4" d="M175.71,54.96c0.01-4.41-1.79-6.12-6.33-6.1c-32.79,0.14-65.57,0.15-98.35-0.01c-4.9-0.02-6.32,1.74-6.28,6.44   c0.17,21.8,0.08,43.6,0.08,65.4c0,0,0.01,0,0.02,0c0,22.14,0.1,44.27-0.09,66.41c-0.04,4.77,1.67,6.58,6.34,6.57   c32.62-0.07,65.24-0.06,97.86,0.02c4.55,0.01,6.73-1.67,6.72-6.42C175.63,143.17,175.66,99.06,175.71,54.96z M167.93,121.28   c0,19.97-0.11,39.95,0.09,59.92c0.03,3.76-0.98,4.74-4.71,4.72c-28.8-0.16-57.6-0.16-86.39-0.01c-3.72,0.02-4.73-0.97-4.72-4.73   c0.14-39.95,0.12-79.9,0.03-119.86c-0.01-3.49,0.64-5.01,4.63-4.98c28.46,0.25,56.92,0.36,85.38,0.26   c4.47-0.02,5.87,1.07,5.81,5.75C167.76,81.99,167.93,101.63,167.93,121.28z"></path>
	<path class="st5" d="M147.1,90.21c-5.73,0.01-9.88-4.05-9.79-9.59c0.08-5.02,4.55-9.44,9.62-9.51c5.24-0.07,9.88,4.6,9.78,9.85   C156.59,86.29,152.54,90.19,147.1,90.21z"></path>
	<path class="st5" d="M147.13,117.17c-5.37,0.07-9.66-3.9-9.8-9.07c-0.15-5.28,4.32-9.97,9.56-10.03c5.32-0.06,9.77,4.39,9.78,9.78   C156.68,112.95,152.43,117.1,147.13,117.17z"></path>
	<path class="st6" d="M120.27,144.06c-5.87,0.03-9.62-3.69-9.61-9.56c0-5.32,4.13-9.5,9.37-9.49c5.47,0.01,9.85,4.38,9.76,9.74   C129.69,140.11,125.7,144.02,120.27,144.06z"></path>
	<path class="st5" d="M146.9,144.08c-5.55-0.05-9.75-4.36-9.57-9.82c0.16-5.02,4.74-9.31,9.83-9.21c5.43,0.1,9.72,4.57,9.56,9.95   C156.56,140.07,152.18,144.12,146.9,144.08z"></path>
	<path class="st7" d="M119.59,90.25c-5.65-0.25-9.3-4.45-8.92-10.29c0.34-5.15,4.98-9.26,10.03-8.89c5.06,0.38,9.27,5.01,9.07,10   C129.54,86.64,125.26,90.5,119.59,90.25z"></path>
	<path class="st5" d="M93.14,117.23c-5.72-0.06-9.46-4.02-9.32-9.87c0.13-5.43,4.11-9.3,9.51-9.26c5.17,0.04,9.49,4.32,9.56,9.46   C102.95,113.08,98.71,117.29,93.14,117.23z"></path>
	<path class="st5" d="M93.12,151.98c5.16-0.09,9.57,4.07,9.77,9.22c0.21,5.41-4.06,9.82-9.55,9.88c-5.55,0.06-9.44-3.63-9.62-9.15   C83.56,156.31,87.55,152.08,93.12,151.98z"></path>
	<path class="st8" d="M147.17,171.08c-5.57,0.05-9.93-4.19-9.87-9.6c0.06-5.09,4.46-9.47,9.56-9.5c5.35-0.04,9.89,4.43,9.86,9.7   C156.69,166.92,152.52,171.03,147.17,171.08z"></path>
	<path class="st5" d="M93.4,90.25c-5.49,0.06-9.48-3.71-9.63-9.1c-0.16-5.64,3.88-9.98,9.35-10.04c5.07-0.06,9.59,4.22,9.77,9.25   C103.07,85.81,98.88,90.19,93.4,90.25z"></path>
	<path class="st5" d="M120.02,117.19c-5.56-0.01-9.31-3.75-9.32-9.3c-0.01-5.62,4.22-10,9.54-9.87c5.11,0.13,9.49,4.5,9.55,9.54   C129.86,112.99,125.59,117.19,120.02,117.19z"></path>
	<path class="st5" d="M120.37,171.1c-5.58,0.1-9.51-3.56-9.69-9.05c-0.19-5.72,3.72-9.98,9.24-10.07c5.45-0.09,9.81,4.16,9.88,9.63   C129.87,166.81,125.7,171.01,120.37,171.1z"></path>
	<path class="st7" d="M93.18,144.07c-5.69-0.03-9.6-4.07-9.47-9.77c0.12-5.35,4.23-9.3,9.59-9.23c5.2,0.07,9.48,4.27,9.57,9.41   C102.98,139.96,98.8,144.1,93.18,144.07z"></path>
</g>
</svg>