<svg xmlns="http://www.w3.org/2000/svg" xmlns:xlink="http://www.w3.org/1999/xlink" id="Layer_1" x="0px" y="0px" viewBox="0 0 32 32" style="enable-background:new 0 0 32 32;" xml:space="preserve">
<style type="text/css">
	.st0{fill:#AAB31E;}
</style>
<g>
	<path class="st0" d="M22.3,14.6L22.3,14.6c-0.3,0-0.6-0.2-0.8-0.4c-0.4-0.6-1.3-1-2.4-1c-1,0-2,0.4-2.4,1c-0.4,0.5-1.2,0.5-1.6,0   c-0.4-0.6-1.3-1-2.4-1c-1,0-2,0.4-2.4,1c-0.4,0.5-1.2,0.5-1.6,0c-0.4-0.6-1.4-1-2.4-1c-0.8,0-1.6,0.2-2.1,0.7   c-0.3,0.3-0.7,0.3-1.1,0.1c-0.3-0.2-0.5-0.6-0.5-0.9C3.8,6.8,9.1,2.4,16,2.4s12.2,4.4,13.1,10.7c0.1,0.4-0.1,0.8-0.5,0.9   c-0.3,0.2-0.8,0.1-1.1-0.1c-0.5-0.4-1.3-0.7-2.1-0.7c-1,0-2,0.4-2.4,1C22.9,14.5,22.6,14.6,22.3,14.6 M15.8,13.5L15.8,13.5   L15.8,13.5z M9.5,13.5L9.5,13.5L9.5,13.5z M22.5,13.5L22.5,13.5L22.5,13.5z M16.2,13.5L16.2,13.5L16.2,13.5z M9.9,13.5L9.9,13.5   L9.9,13.5z M19.1,12.1c1.3,0,2.5,0.5,3.1,1.2c0.7-0.8,1.8-1.2,3.1-1.2c0.9,0,1.7,0.2,2.4,0.6c-1-5.4-5.7-9.1-11.8-9.1   c-6.1,0-10.8,3.7-11.8,9.1c0.7-0.4,1.5-0.6,2.4-0.6c1.3,0,2.5,0.5,3.1,1.2c0.7-0.8,1.9-1.2,3.1-1.2c1.3,0,2.5,0.5,3.1,1.2   C16.7,12.5,17.9,12.1,19.1,12.1 M28.3,13C28.3,13,28.3,13,28.3,13C28.3,13,28.3,13,28.3,13"></path>
	<path class="st0" d="M17.7,30.5c-0.1,0-0.2,0-0.2,0c-1.2-0.1-2-1.1-2-2.4v-3.9h1.2v3.9c0,0.6,0.3,1.2,1,1.2c0.4,0,0.7-0.1,0.8-0.3   c0.2-0.2,0.4-0.5,0.4-0.9v-0.4h1.2v0.4c0,0.7-0.3,1.3-0.8,1.8C18.7,30.3,18.2,30.5,17.7,30.5"></path>
	<path class="st0" d="M10.3,14H9.1c0-5.3,2.6-9.9,6.7-11.6l0.5,1.1C12.6,5,10.3,9.2,10.3,14"></path>
	<path class="st0" d="M23,14h-1.2c0-4.9-2.3-9-6-10.5l0.5-1.1C20.4,4.1,23,8.7,23,14"></path>
	<rect x="15.4" y="1.5" class="st0" width="1.2" height="12.4"></rect>
	<rect x="15.4" y="13.9" class="st0" width="1.2" height="1.2"></rect>
	<path class="st0" d="M16,26.9c-0.1,0-0.1,0-0.2,0l-6-2.3c-0.2-0.1-0.4-0.3-0.4-0.6v-6.8c0-0.2,0.1-0.4,0.3-0.5   c0.2-0.1,0.4-0.1,0.5-0.1l6,2.3c0.2,0.1,0.4,0.3,0.4,0.6v6.8c0,0.2-0.1,0.4-0.3,0.5C16.2,26.9,16.1,26.9,16,26.9 M10.6,23.7   l4.8,1.8V20l-4.8-1.8V23.7z"></path>
	<path class="st0" d="M16,26.9c-0.1,0-0.2,0-0.3-0.1c-0.2-0.1-0.3-0.3-0.3-0.5v-6.8c0-0.2,0.2-0.5,0.4-0.6l5.7-2.1   c0.2-0.1,0.4,0,0.5,0.1c0.2,0.1,0.3,0.3,0.3,0.5V24c0,0.2-0.1,0.5-0.4,0.6l-5.7,2.3C16.2,26.9,16.1,26.9,16,26.9 M16.6,20v5.5   l4.5-1.8v-5.3L16.6,20z"></path>
	<path class="st0" d="M16,20.2c-0.1,0-0.1,0-0.2,0l-6-2.3c-0.2-0.1-0.4-0.3-0.4-0.6c0-0.3,0.2-0.5,0.4-0.6l6-2c0.1,0,0.3,0,0.4,0   l5.7,2.1c0.2,0.1,0.4,0.3,0.4,0.6c0,0.2-0.2,0.5-0.4,0.6l-5.7,2.1C16.1,20.2,16.1,20.2,16,20.2 M11.8,17.4l4.2,1.6l4-1.5L16,16   L11.8,17.4z"></path>
	<rect x="15.5" y="14.4" transform="matrix(0.3752 -0.927 0.927 0.3752 -6.0859 25.7456)" class="st0" width="1.2" height="6"></rect>
</g>
</svg>