<svg xmlns="http://www.w3.org/2000/svg" xmlns:xlink="http://www.w3.org/1999/xlink" id="Layer_1" x="0px" y="0px" viewBox="0 0 32 32" style="enable-background:new 0 0 32 32;" xml:space="preserve">
<style type="text/css">
	.st0{fill:#B0B91E;}
</style>
<path class="st0" d="M31.8,6.7c-0.2-0.3-0.5-0.4-0.8-0.4H7.9c0,0-0.1,0-0.1,0l-1-2.7C6.7,3.2,6.5,3,6.2,2.9L1.4,1  C0.9,0.8,0.3,1.1,0.1,1.6c-0.2,0.5,0.1,1.1,0.6,1.3L5,4.6L10.3,20c-0.2,0.1-0.4,0.3-0.5,0.5l-1.5,4.3c-0.1,0.3-0.1,0.6,0.1,0.8  c0.2,0.2,0.4,0.4,0.7,0.4h0.8c-0.5,0.5-0.8,1.3-0.8,2.1c0,1.7,1.4,3.1,3.1,3.1c1.7,0,3.1-1.4,3.1-3.1c0-0.8-0.3-1.5-0.8-2.1h6.7  c-0.5,0.5-0.8,1.3-0.8,2.1c0,1.7,1.4,3.1,3.1,3.1c1.7,0,3.1-1.4,3.1-3.1c0-0.8-0.3-1.5-0.8-2.1h1c0.5,0,0.9-0.4,0.9-0.9  c0-0.5-0.4-0.9-0.9-0.9H10.3l1-2.6c0.1,0.1,0.3,0.1,0.4,0.1h15.1c0.4,0,0.8-0.3,1-0.7L32,7.6C32.1,7.3,32,6.9,31.8,6.7 M12.1,29.3  c-0.8,0-1.4-0.6-1.4-1.4c0-0.8,0.6-1.4,1.4-1.4c0.8,0,1.4,0.6,1.4,1.4C13.5,28.7,12.9,29.3,12.1,29.3 M23.4,29.3  c-0.8,0-1.4-0.6-1.4-1.4c0-0.8,0.6-1.4,1.4-1.4c0.8,0,1.4,0.6,1.4,1.4C24.8,28.7,24.2,29.3,23.4,29.3 M28.8,10.6h-5.2V8.3h6  L28.8,10.6z M27.3,15.3h-3.7v-2.7h4.6L27.3,15.3z M16.8,12.7h4.7v2.7h-4.7V12.7z M21.5,19.6h-4.7v-2.2h4.7V19.6z M10,12.7h4.8v2.7  h-3.9L10,12.7z M16.8,8.3h4.7v2.3h-4.7V8.3z M14.7,8.3v2.3H9.2L8.4,8.3H14.7z M11.6,17.4h3.1v2.2h-2.4L11.6,17.4z M23.6,19.6v-2.2  h3.1l-0.7,2.2H23.6z"></path>
</svg>