<svg xmlns="http://www.w3.org/2000/svg" xmlns:xlink="http://www.w3.org/1999/xlink" id="Layer_1" x="0px" y="0px" viewBox="0 0 32 32" style="enable-background:new 0 0 32 32;" xml:space="preserve">
<style type="text/css">
	.st0{fill:#AAB31E;}
</style>
<g>
	<polygon class="st0" points="28.3,28.8 4.3,28.8 4.3,12.2 5.5,12.2 5.5,27.5 27,27.5 27,12.2 28.3,12.2  "></polygon>
	<path class="st0" d="M23.2,28.8H9.3V17.4h13.9V28.8z M10.6,27.5H22v-8.8H10.6V27.5z"></path>
	<polygon class="st0" points="10.6,16.1 9.3,16.1 9.3,13 12.5,13 12.5,14.2 10.6,14.2  "></polygon>
	<polygon class="st0" points="15.6,16.1 14.4,16.1 14.4,13 17.5,13 17.5,14.2 15.6,14.2  "></polygon>
	<polygon class="st0" points="20.7,16.1 19.4,16.1 19.4,13 22.6,13 22.6,14.2 20.7,14.2  "></polygon>
	<polygon class="st0" points="29.9,13.9 16.3,7.8 2.6,13.9 2.1,12.7 16.3,6.5 30.4,12.7  "></polygon>
	<polygon class="st0" points="31.2,12 16.3,5.1 1.3,12 0.8,10.8 16.3,3.8 31.8,10.8  "></polygon>
	<rect x="11.9" y="19.9" class="st0" width="8.9" height="1.3"></rect>
	<rect x="11.9" y="22.4" class="st0" width="8.9" height="1.3"></rect>
	<rect x="11.9" y="25" class="st0" width="8.9" height="1.3"></rect>
	<rect x="1.7" y="27.5" class="st0" width="29.1" height="1.3"></rect>
</g>
</svg>