<svg xmlns="http://www.w3.org/2000/svg" xmlns:xlink="http://www.w3.org/1999/xlink" id="Layer_1" x="0px" y="0px" viewBox="0 0 32 32" style="enable-background:new 0 0 32 32;" xml:space="preserve">
<style type="text/css">
	.st0{fill:#AAB31E;}
</style>
<g>
	<path class="st0" d="M20.8,23H10.3v-1.3h9.3V8.2c0-0.2-0.2-0.3-0.3-0.3H3C2.9,7.8,2.7,8,2.7,8.2v13.2c0,0.2,0.2,0.3,0.3,0.3h3V23H3   c-0.9,0-1.6-0.7-1.6-1.6V8.2c0-0.9,0.7-1.6,1.6-1.6h16.2c0.9,0,1.6,0.7,1.6,1.6V23z"></path>
	<path class="st0" d="M29,23h-1.8v-1.3H29c0.2,0,0.3-0.2,0.3-0.3v-5.1L27,12.9c-0.4-0.6-1.2-1-1.9-1h-4.3v9.9H23V23h-3.4V10.6h5.6   c1.2,0,2.3,0.6,3,1.6l2.5,3.7v5.5C30.6,22.3,29.8,23,29,23"></path>
	<path class="st0" d="M8.2,25.5c-1.7,0-3.1-1.4-3.1-3.1c0-1.7,1.4-3.1,3.1-3.1c1.7,0,3.1,1.4,3.1,3.1C11.2,24.1,9.9,25.5,8.2,25.5    M8.2,20.6c-1,0-1.8,0.8-1.8,1.8c0,1,0.8,1.8,1.8,1.8c1,0,1.8-0.8,1.8-1.8C10,21.4,9.2,20.6,8.2,20.6"></path>
	<path class="st0" d="M25.1,25.5c-1.7,0-3.1-1.4-3.1-3.1c0-1.7,1.4-3.1,3.1-3.1c1.7,0,3.1,1.4,3.1,3.1   C28.1,24.1,26.8,25.5,25.1,25.5 M25.1,20.6c-1,0-1.8,0.8-1.8,1.8c0,1,0.8,1.8,1.8,1.8c1,0,1.8-0.8,1.8-1.8   C26.9,21.4,26.1,20.6,25.1,20.6"></path>
	<polygon class="st0" points="29.9,16.7 24.4,16.7 24.4,13.7 25.7,13.7 25.7,15.5 29.9,15.5  "></polygon>
	<rect x="17" y="19.2" class="st0" width="1.3" height="1.3"></rect>
	<rect x="4" y="15.5" class="st0" width="14.3" height="1.3"></rect>
</g>
</svg>