<svg xmlns="http://www.w3.org/2000/svg" xmlns:xlink="http://www.w3.org/1999/xlink" id="Layer_1" x="0px" y="0px" viewBox="0 0 32 32" style="enable-background:new 0 0 32 32;" xml:space="preserve">
<style type="text/css">
	.st0{fill:#AAB31E;}
</style>
<g>
	<path class="st0" d="M30.1,15.5L30.1,15.5l-4.2-8.3c-0.3-0.7-1-1.1-1.8-1.1h-0.8V5.4c0-0.3-0.2-0.6-0.6-0.6H9.2   c-0.3,0-0.6,0.2-0.6,0.6v0.8H7.8c-0.7,0-1.4,0.4-1.8,1.1l-4.2,8.2l0,0c-0.2,0.3-0.3,0.6-0.3,1v8.7c0,1.1,0.9,1.9,2,1.9h24.8   c1.1,0,1.9-0.9,1.9-1.9v-8.7C30.4,16.1,30.3,15.8,30.1,15.5 M23.4,7.4h0.8c0.3,0,0.5,0.2,0.7,0.4l3.4,6.8h-2.3v-2.1   c0-0.3-0.2-0.6-0.6-0.6h-0.7v-3c0-0.3-0.2-0.6-0.6-0.6h-0.7V7.4z M24.8,13v1.5h-2.9c-0.5,0-1,0.3-1.2,0.8l-0.8,1.8c0,0,0,0,0,0   h-7.7c0,0,0,0,0,0l-0.8-1.8c-0.2-0.5-0.7-0.8-1.2-0.8H7.2V13H24.8z M9.8,5.9h12.5v2.4H9.8V5.9z M23.5,11.9H8.5V9.5h15.1V11.9z    M7.2,7.8c0.1-0.2,0.4-0.4,0.7-0.4h0.8v1H7.9c-0.3,0-0.6,0.2-0.6,0.6v3H6.7c-0.3,0-0.6,0.2-0.6,0.6v2.1H3.8L7.2,7.8z M29.1,25.2   c0,0.4-0.3,0.7-0.7,0.7H3.6c-0.4,0-0.7-0.3-0.7-0.7v-8.7c0-0.4,0.3-0.7,0.7-0.7h6.6c0,0,0,0,0,0l0.8,1.8c0.2,0.5,0.7,0.8,1.2,0.8   h7.7c0.5,0,1-0.3,1.2-0.8l0.8-1.8c0,0,0,0,0,0h6.6c0.4,0,0.7,0.3,0.7,0.7V25.2z"></path>
</g>
</svg>