<svg xmlns="http://www.w3.org/2000/svg" xmlns:xlink="http://www.w3.org/1999/xlink" id="Layer_1" x="0px" y="0px" viewBox="0 0 20 20" style="enable-background:new 0 0 20 20;" xml:space="preserve">
<style type="text/css">
	.st0{fill:#AAB31E;}
</style>
<path class="st0" d="M10,11.1c-2,0-3.6-1.6-3.6-3.6c0-2,1.6-3.6,3.6-3.6c2,0,3.6,1.6,3.6,3.6C13.6,9.5,12,11.1,10,11.1 M10,0.5  c-3.9,0-7,3.1-7,7c0,1,0.2,2,0.6,2.9c1.8,3.8,5.1,7.9,6.1,9c0.1,0.1,0.2,0.1,0.3,0.1c0.1,0,0.2,0,0.3-0.1c1-1.1,4.3-5.2,6.1-9  C16.8,9.5,17,8.5,17,7.5C17,3.6,13.9,0.5,10,0.5"></path>
</svg>