<svg xmlns="http://www.w3.org/2000/svg" xmlns:xlink="http://www.w3.org/1999/xlink" id="Layer_1" x="0px" y="0px" viewBox="0 0 20 20" style="enable-background:new 0 0 20 20;" xml:space="preserve">
<style type="text/css">
	.st0{fill:#AAB31E;}
</style>
<path class="st0" d="M19.9,15.5c0,0.3-0.1,0.6-0.3,0.8L16.8,19c-0.1,0.1-0.3,0.2-0.5,0.3c-0.2,0.1-0.4,0.2-0.6,0.2c0,0-0.1,0-0.1,0  c-0.1,0-0.2,0-0.3,0c-0.3,0-0.7,0-1.3-0.1c-0.6-0.1-1.3-0.3-2.2-0.6c-0.9-0.3-1.8-0.9-2.9-1.5c-1.1-0.7-2.2-1.6-3.5-2.8  c-1-0.9-1.8-1.8-2.4-2.7c-0.6-0.8-1.2-1.6-1.5-2.3C1.1,8.6,0.8,8,0.6,7.4C0.4,6.8,0.3,6.3,0.2,5.9c-0.1-0.4-0.1-0.8-0.1-1  c0-0.2,0-0.4,0-0.4c0-0.2,0.1-0.4,0.2-0.6c0.1-0.2,0.2-0.4,0.4-0.5l2.8-2.7c0.2-0.2,0.4-0.3,0.7-0.3c0.2,0,0.3,0.1,0.5,0.2  C4.8,0.8,4.9,0.9,5,1l2.2,4.1c0.1,0.2,0.2,0.4,0.1,0.7C7.3,6.1,7.1,6.3,7,6.5l-1,1c0,0-0.1,0.1-0.1,0.1c0,0.1,0,0.1,0,0.2  C5.9,8,6,8.3,6.2,8.7C6.4,9,6.6,9.4,7,9.9c0.3,0.5,0.8,1,1.5,1.6c0.6,0.6,1.2,1.1,1.7,1.4c0.5,0.3,0.9,0.6,1.2,0.8  c0.3,0.2,0.6,0.3,0.8,0.3l0.3,0.1c0,0,0.1,0,0.1,0c0.1,0,0.1,0,0.1-0.1l1.2-1.2c0.3-0.2,0.5-0.3,0.9-0.3c0.2,0,0.4,0,0.6,0.1h0  l4,2.3C19.6,15,19.8,15.2,19.9,15.5"></path>
</svg>