<svg xmlns="http://www.w3.org/2000/svg" xmlns:xlink="http://www.w3.org/1999/xlink" id="Layer_1" x="0px" y="0px" viewBox="0 0 32 32" style="enable-background:new 0 0 32 32;" xml:space="preserve">
<style type="text/css">
	.st0{fill:#AAB31E;}
</style>
<g>
	<path class="st0" d="M16.4,28c-0.1,0-0.2,0-0.2,0L3.9,23.4c-0.3-0.1-0.4-0.3-0.4-0.6V8.9c0-0.2,0.1-0.4,0.3-0.5   c0.2-0.1,0.4-0.2,0.6-0.1l12.3,4.6c0.3,0.1,0.4,0.3,0.4,0.6v13.8c0,0.2-0.1,0.4-0.3,0.5C16.6,28,16.5,28,16.4,28 M4.8,22.3   l10.9,4.1V14L4.8,9.9V22.3z"></path>
	<path class="st0" d="M16.4,28c-0.1,0-0.3,0-0.4-0.1c-0.2-0.1-0.3-0.3-0.3-0.6V13.5c0-0.3,0.2-0.5,0.4-0.6l11.6-4.3   c0.2-0.1,0.4,0,0.6,0.1c0.2,0.1,0.3,0.3,0.3,0.5v13.4c0,0.3-0.2,0.5-0.4,0.6l-11.6,4.7C16.5,28,16.4,28,16.4,28 M17,14v12.3   l10.2-4.2v-12L17,14z"></path>
	<path class="st0" d="M16.4,14.2c-0.1,0-0.2,0-0.2,0L3.9,9.6C3.6,9.5,3.4,9.2,3.4,8.9c0-0.3,0.2-0.5,0.4-0.6L15.4,4   C15.6,4,15.7,4,15.9,4l12.3,4.6c0.3,0.1,0.4,0.3,0.4,0.6c0,0.3-0.2,0.5-0.4,0.6l-11.6,4.3C16.5,14.2,16.4,14.2,16.4,14.2 M6,8.9   l10.4,3.9L26,9.3L15.6,5.4L6,8.9z"></path>
	<rect x="21.8" y="11.3" class="st0" width="1.3" height="7.5"></rect>
	<rect x="15.7" y="2.4" transform="matrix(0.3512 -0.9363 0.9363 0.3512 2.2001 21.1385)" class="st0" width="1.3" height="13.1"></rect>
</g>
</svg>