<svg xmlns="http://www.w3.org/2000/svg" xmlns:xlink="http://www.w3.org/1999/xlink" id="Layer_1" x="0px" y="0px" viewBox="0 0 54 54" style="enable-background:new 0 0 54 54;" xml:space="preserve">
<style type="text/css">
	.st0{fill:#425968;}
</style>
<title>Storage Unit Icons</title>
<g>
	<path class="st0" d="M51.9,23.4c-0.2-0.4-0.5-0.6-0.9-0.6h-3.2C45.4,9.9,33.2,1.5,20.3,3.8S-1,18.4,1.4,31.2S16,52.5,28.8,50.2   C35.6,49,41.5,44.8,45,38.8c0.6-1,0.2-2.4-0.8-2.9c-1-0.6-2.4-0.2-2.9,0.8l0,0c-5.3,9.2-17.2,12.4-26.4,7s-12.4-17.2-7-26.4   S25,5,34.2,10.3c4.7,2.7,8,7.2,9.2,12.5h-3.2c-0.6,0-1.1,0.5-1.1,1.1c0,0.3,0.1,0.5,0.3,0.7l5.4,6.4c0.4,0.5,1,0.5,1.5,0.2   c0.1,0,0.1-0.1,0.2-0.2l5.4-6.4C52,24.2,52.1,23.8,51.9,23.4"></path>
	<path class="st0" d="M24.5,28.7c-0.9,0-1.6-0.7-1.6-1.6c0-0.9,0.7-1.6,1.6-1.6c0.9,0,1.6,0.7,1.6,1.6c0,0,0,0,0,0   C26.1,27.9,25.4,28.7,24.5,28.7 M24.5,8.8c-1.2,0-2.1,1-2.1,2.1v13c-1.7,1.2-2.1,3.5-1,5.2c0.7,1,1.9,1.6,3.1,1.6   c0.6,0,1.1-0.1,1.6-0.4l7.5,4.3c0.3,0.2,0.7,0.3,1.1,0.3c1.2,0,2.1-1,2.1-2.1c0-0.8-0.4-1.5-1.1-1.9l-7.5-4.3   c-0.1-1.1-0.7-2.1-1.6-2.8V11C26.7,9.8,25.7,8.8,24.5,8.8"></path>
</g>
</svg>