<svg xmlns="http://www.w3.org/2000/svg" xmlns:xlink="http://www.w3.org/1999/xlink" id="Layer_1" x="0px" y="0px" viewBox="0 0 54 54" style="enable-background:new 0 0 54 54;" xml:space="preserve">
<style type="text/css">
	.st0{fill:#425969;}
	.st1{fill:none;}
</style>
<title>Storage Unit Icons</title>
<path class="st0" d="M36.5,34.9c-1.9,0-3.4-1.5-3.4-3.4s1.5-3.4,3.4-3.4s3.4,1.5,3.4,3.4S38.4,34.9,36.5,34.9L36.5,34.9 M7.4,31.5  c0-1.9,1.5-3.4,3.4-3.4s3.4,1.5,3.4,3.4s-1.5,3.4-3.4,3.4C8.9,34.9,7.4,33.4,7.4,31.5C7.4,31.5,7.4,31.5,7.4,31.5 M12.6,16.6  c4.4-2.9,17.7-2.9,22.1,0c0.9,0.6,2,2.9,3,5.7H9.6C10.6,19.5,11.7,17.2,12.6,16.6 M46.1,20.9c-0.2-0.3-0.6-0.4-0.9-0.4h-4.4  c-1.1-2.9-2.5-5.7-4.1-6.7c-5.6-3.7-20.4-3.7-26,0c-1.6,1.1-3,3.9-4.1,6.7H2.2c-0.3,0-0.7,0.2-0.9,0.4c-0.2,0.3-0.3,0.6-0.2,1  L1.7,25C1.8,25.6,2.3,26,2.8,26h1.3c-1.2,1.4-1.9,3.2-1.9,5.1c0,2.2,0.8,4.3,2.4,5.8h0.1v4.5c0,1,0.8,1.7,1.8,1.7c0,0,0,0,0,0h4  c1,0,1.7-0.8,1.8-1.7v-1.8h22.8v1.8c0,1,0.8,1.7,1.7,1.7h0h4.1c1,0,1.7-0.8,1.7-1.7v0v-4.4c3.1-2.9,3.3-7.8,0.5-11h1.4  c0.6,0,1-0.4,1.1-0.9l0.7-3.2C46.4,21.5,46.3,21.1,46.1,20.9"></path>
<rect x="0.6" y="-15.7" class="st1" width="84.7" height="84.7"></rect>
</svg>