<svg xmlns="http://www.w3.org/2000/svg" xmlns:xlink="http://www.w3.org/1999/xlink" id="Layer_1" x="0px" y="0px" viewBox="0 0 54 54" style="enable-background:new 0 0 54 54;" xml:space="preserve">
<style type="text/css">
	.st0{fill:#425968;}
</style>
<title>Storage Unit Icons</title>
<g>
	<path class="st0" d="M27.2,14.3c-7.3,0-13.1,5.9-13.1,13.1S20,40.5,27.2,40.5s13.1-5.9,13.1-13.1v0C40.3,20.2,34.5,14.3,27.2,14.3"></path>
	<path class="st0" d="M27.2,10.4c-1.4,0-2.6-1.1-2.6-2.5c0,0,0,0,0,0V3.8c0-1.4,1.1-2.6,2.6-2.6c1.4,0,2.6,1.1,2.6,2.6v4.1   C29.8,9.3,28.6,10.4,27.2,10.4L27.2,10.4"></path>
	<path class="st0" d="M27.2,44.4c-1.4,0-2.6,1.1-2.6,2.6c0,0,0,0,0,0v4.1c0,1.4,1.1,2.6,2.6,2.6c1.4,0,2.6-1.1,2.6-2.6V47   C29.8,45.6,28.6,44.4,27.2,44.4"></path>
	<path class="st0" d="M39.2,15.4c-1-1-1-2.6,0-3.6l2.9-2.9c1-1,2.6-1,3.6,0.1c1,1,1,2.6,0,3.6l-2.9,2.9   C41.8,16.4,40.2,16.4,39.2,15.4"></path>
	<path class="st0" d="M15.2,39.4c-1-1-2.6-1-3.6,0c0,0,0,0,0,0l-2.9,2.9c-1,1-1,2.6,0,3.6s2.6,1,3.6,0l2.9-2.9   C16.2,42.1,16.2,40.5,15.2,39.4C15.2,39.5,15.2,39.5,15.2,39.4"></path>
	<path class="st0" d="M44.2,27.4c0-1.4,1.1-2.6,2.6-2.6c0,0,0,0,0,0h4.1c1.4,0,2.6,1.2,2.6,2.6c0,1.4-1.2,2.6-2.6,2.6h-4.1   C45.3,30,44.2,28.9,44.2,27.4"></path>
	<path class="st0" d="M10.2,27.4c0-1.4-1.1-2.6-2.5-2.6c0,0,0,0,0,0H3.6C2.1,24.9,1,26,1,27.4C1,28.8,2.1,30,3.6,30h4.1   C9.1,30,10.2,28.8,10.2,27.4L10.2,27.4"></path>
	<path class="st0" d="M39.2,39.4c1-1,2.6-1,3.6,0c0,0,0,0,0,0l2.9,2.9c1,1,1,2.6,0,3.6s-2.6,1-3.6,0l-2.9-2.9   C38.2,42.1,38.2,40.5,39.2,39.4"></path>
	<path class="st0" d="M15.2,15.4c1-1,1-2.6,0-3.6c0,0,0,0,0,0l-2.9-2.9c-1-1-2.6-1-3.6,0.1c-1,1-1,2.6,0,3.6l2.9,2.9   C12.6,16.4,14.2,16.4,15.2,15.4"></path>
</g>
</svg>