<svg xmlns="http://www.w3.org/2000/svg" xmlns:xlink="http://www.w3.org/1999/xlink" id="Layer_1" x="0px" y="0px" viewBox="0 0 54 54" style="enable-background:new 0 0 54 54;" xml:space="preserve">
<style type="text/css">
	.st0{fill:#425968;}
	.st1{fill:none;}
</style>
<title>Storage Unit Icons</title>
<g>
	<path class="st0" d="M50.4,45.3c0,1-0.8,1.9-1.9,1.9H6.2c-1,0-1.9-0.9-1.9-1.9v-17c0-1,0.8-1.9,1.9-1.9h42.3c1,0,1.9,0.8,1.9,1.9   c0,0,0,0,0,0V45.3z M22.2,8.1c0.9,2.9,3.9,4.5,6.8,3.6c1.7-0.5,3-1.8,3.6-3.5l13.9,15.3H8.3L22.2,8.1z M27.4,4.1   c1.3,0,2.3,1.1,2.3,2.4s-1.1,2.3-2.4,2.3C26,8.8,25,7.8,25,6.5C25,5.2,26.1,4.1,27.4,4.1 M52.2,25.1L31.9,2.9c-1.2-1.3-2.8-2-4.6-2   l0,0c-1.7,0-3.4,0.7-4.6,2l-20,21.9c-0.9,0.9-1.4,2.2-1.5,3.5v17c0,2.7,2.2,5,5,5h42.3c2.7,0,5-2.3,5-5v-17   C53.5,27.1,53,26,52.2,25.1"></path>
	<path class="st0" d="M13.2,42.2h-2.9v-9.7h2.9L13.2,42.2z M14.7,29.4h-6c-0.8,0-1.5,0.7-1.5,1.5c0,0,0,0,0,0v12.8   c0,0.8,0.7,1.5,1.5,1.5h6c0.8,0,1.5-0.7,1.5-1.5V31C16.3,30.2,15.6,29.5,14.7,29.4"></path>
	<path class="st0" d="M23.9,35.8h-2.6v-3.3h2.6V35.8z M25.4,29.4h-5.6c-0.8,0-1.5,0.7-1.5,1.5c0,0,0,0,0,0v12.8   c0,0.8,0.7,1.5,1.5,1.5c0.8,0,1.5-0.7,1.5-1.5v-4.9h4.1c0.8,0,1.5-0.6,1.6-1.5c0,0,0,0,0,0V31C27,30.2,26.3,29.5,25.4,29.4   C25.5,29.5,25.5,29.5,25.4,29.4"></path>
	<path class="st0" d="M46,29.4c-0.8,0-1.6,0.6-1.6,1.5c0,0,0,0.1,0,0.1v6.1l-3.3-6.8c-0.4-0.8-1.3-1.1-2-0.7   c-0.5,0.3-0.9,0.8-0.9,1.4v12.8c0,0.8,0.7,1.5,1.5,1.5c0.8,0,1.5-0.7,1.5-1.5v-6.1l3.3,6.8c0.3,0.5,0.8,0.9,1.4,0.9   c0.1,0,0.2,0,0.3,0c0.7-0.2,1.2-0.8,1.2-1.5V31C47.5,30.2,46.8,29.5,46,29.4C46,29.4,46,29.4,46,29.4"></path>
	<path class="st0" d="M34.3,32.5c0.8,0,1.5-0.7,1.5-1.5c0-0.8-0.7-1.5-1.5-1.5h-3.9c-0.8,0-1.5,0.7-1.5,1.5c0,0,0,0,0,0.1v12.8   c0,0.8,0.7,1.5,1.5,1.5h3.9c0.8,0,1.5-0.7,1.5-1.5c0-0.8-0.7-1.5-1.5-1.5h-2.4v-3.3h1.8c0.8,0,1.5-0.7,1.5-1.5   c0-0.8-0.7-1.5-1.5-1.5l0,0h-1.8v-3.3H34.3z"></path>
	<rect x="-15.2" y="-14.7" class="st1" width="84.7" height="84.7"></rect>
</g>
</svg>