<svg xmlns="http://www.w3.org/2000/svg" xmlns:xlink="http://www.w3.org/1999/xlink" id="Layer_1" x="0px" y="0px" viewBox="0 0 54 54" style="enable-background:new 0 0 54 54;" xml:space="preserve">
<style type="text/css">
	.st0{fill:#425968;}
</style>
<title>Storage Unit Icons</title>
<path class="st0" d="M18.9,24.9c-1.8-0.9-3.6-1.8-5.5-2.5c-1.1-0.4-2.1-1-3-1.7c-1.2-0.8-1.5-2.5-0.7-3.7c0.3-0.5,0.8-0.8,1.3-1  c0.6-0.2,1.2-0.4,1.8-0.4c2.4-0.1,4.8,0.3,6.9,1.4c1.1,0.5,1.5,0.4,1.8-0.8s0.7-2.5,1.1-3.7c0.3-0.7-0.1-1.4-0.7-1.7  c0,0-0.1,0-0.1,0C20.5,10,19,9.6,17.5,9.3c-2-0.3-2-0.3-2-2.4c0-2.9,0-2.9-2.8-2.9c-0.4,0-0.8,0-1.2,0c-1.3,0-1.5,0.3-1.6,1.6  c0,0.6,0,1.2,0,1.8c0,1.8,0,1.8-1.7,2.4c-4.1,1.5-6.6,4.4-6.9,8.9c-0.2,4,1.8,6.7,5,8.7c2,1.1,4.2,2.1,6.3,2.9  c0.8,0.3,1.6,0.8,2.3,1.3c1.4,1.1,1.7,3.1,0.7,4.5c-0.4,0.5-0.9,0.9-1.4,1.1c-1.3,0.5-2.6,0.7-4,0.5c-2.2-0.2-4.3-0.8-6.2-1.8  c-1.1-0.6-1.5-0.4-1.9,0.8c-0.3,1.1-0.6,2.2-0.9,3.3c-0.4,1.5-0.3,1.8,1.1,2.5c1.8,0.8,3.6,1.4,5.6,1.6c1.5,0.3,1.5,0.3,1.6,1.9  c0,0.7,0,1.5,0,2.2c-0.1,0.7,0.4,1.3,1.1,1.4c0.1,0,0.2,0,0.3,0c1,0,2.1,0,3.1,0c0.7,0.1,1.2-0.4,1.3-1.1c0-0.1,0-0.2,0-0.3  c0-1,0-2,0-3c-0.1-0.9,0.5-1.6,1.4-1.7c2.2-0.6,4.1-1.8,5.5-3.6c3.5-4.4,2.8-10.8-1.6-14.2C20,25.6,19.4,25.2,18.9,24.9"></path>
</svg>