<svg xmlns="http://www.w3.org/2000/svg" xmlns:xlink="http://www.w3.org/1999/xlink" id="Layer_1" x="0px" y="0px" viewBox="0 0 54 54" style="enable-background:new 0 0 54 54;" xml:space="preserve">
<style type="text/css">
	.st0{fill:#425968;}
</style>
<title>Storage Unit Icons</title>
<g>
	<path class="st0" d="M46.9,8.5c-4-2.1-9.5-2.2-14.3-0.2c-4.5,1.8-7.7,5.8-9.6,8.9c-0.9-0.2-1.7,0.2-2.2,0.9   c-0.4,0.7-0.2,1.6,0.5,2.1c-0.2,0.4-0.3,0.6-0.3,0.7l-9.3,18.8c-0.9-0.4-2-0.1-2.5,0.8c-0.4,0.8-0.1,1.9,0.8,2.3c0,0,0.1,0,0.1,0.1   h0.1l-2.1,4.2H2.8c-1,0-1.8,0.8-1.8,1.8c0,1,0.8,1.8,1.8,1.8h9.6c1,0,1.8-0.8,1.8-1.8c0-1-0.8-1.8-1.8-1.8h-0.2l1.3-2.7   c0.2,0.1,0.4,0.1,0.5,0.1c0.7,0,1.4-0.4,1.7-1c0.4-0.8,0.1-1.8-0.7-2.2l9.6-19.5c0.3,0.1,0.5,0.2,0.8,0.2c0.7,0,1.4-0.4,1.7-1   c0.4-0.8,0.1-1.8-0.7-2.3c0,0,0,0-0.1,0c1.6-2.5,4.3-5.8,7.7-7.1C37.8,10,42.1,10,45,11.6c2.1,1,3.4,3.1,3.6,5.4   c0.5,4.5,0.1,7.6-1.3,9c-0.1,0.1-0.3,0.3-0.4,0.4v3.9c1.2-0.4,2.3-1,3.3-2c2.2-2.2,3-6.1,2.3-11.8C52.1,13.1,50,10.1,46.9,8.5"></path>
	<path class="st0" d="M41.5,38.3c1.2,0,2.4,0.2,3.5,0.7V25c0-1,0.1-0.9-1-0.9h-3.8c-1.1,0-11.7,0.8-14.6,13.6l-1.8,10.6   c0,1.1,0.8,2,1.9,2.2h9.1c-1.1-1.3-1.8-3-1.8-4.7C33.1,41.7,36.8,38.3,41.5,38.3"></path>
	<path class="st0" d="M41.5,43c1.6,0.1,2.9,1.6,2.7,3.2c-0.1,1.6-1.6,2.9-3.2,2.7c-1.5-0.1-2.7-1.4-2.7-3   C38.3,44.2,39.8,42.9,41.5,43 M45.9,41.7c-0.3-0.3-0.6-0.5-1-0.7c-1.1-0.6-2.3-1-3.5-1c-3.4-0.1-6.3,2.5-6.4,5.9   c0,1.9,1,3.6,2.6,4.7c0.5,0.4,1.1,0.7,1.8,0.9c0.7,0.2,1.4,0.3,2.1,0.3c0.7,0,1.4-0.1,2.1-0.3c0.7-0.2,1.3-0.5,1.9-0.9   c0.5-0.4,1-0.8,1.3-1.3c1.4-1.9,1.5-4.5,0.1-6.4C46.6,42.5,46.3,42.1,45.9,41.7"></path>
</g>
</svg>